<svg width="30" height="30" viewBox="0 0 30 30" fill="none" xmlns="http://www.w3.org/2000/svg">
<g clip-path="url(#clip0_468_12297)">
<path fill-rule="evenodd" clip-rule="evenodd" d="M3.07091e-06 14.9472C0.00529405 6.86566 6.80273 -0.0453069 15.1143 0.000223703C23.3094 0.0448731 30.1304 6.8398 29.998 15.0389C30.0767 23.3248 23.1672 30.0266 14.9679 30C6.82713 29.9734 -0.0052879 23.2476 3.07091e-06 14.9472ZM14.9311 27.3224C8.25453 27.2575 2.63138 21.9951 2.70693 14.9545C2.78277 7.84912 8.15339 3.15711 14.1022 2.77935C21.9505 2.28087 27.37 8.41694 27.3332 15.0529C27.295 21.8317 21.8144 27.4197 14.9311 27.3224ZM19.2069 7.20171C18.1143 7.19729 17.3697 7.89172 17.3574 8.92689C17.3444 10.0302 18.0928 10.8662 19.0984 10.8718C20.1745 10.8776 21.032 10.0584 21.0293 9.02646C21.0267 7.90229 20.3315 7.2064 19.2069 7.20171ZM16.1751 21.3021C19.0925 23.2808 23.2959 21.872 24.5995 18.6966C24.9537 17.8335 24.5446 17.1471 23.6366 17.071C23.0757 17.024 22.7474 17.3888 22.4746 17.8221C21.9976 18.5803 21.4103 19.2103 20.5519 19.5578C18.902 20.2255 16.445 19.5364 16.5872 17.026C16.6313 16.2435 16.8418 15.5453 17.0852 14.8362C17.3729 13.9978 17.1575 13.2458 16.5576 12.6933C15.9244 12.1102 15.1193 11.8241 14.2624 12.2835C13.5061 12.6892 13.0305 13.2614 13.069 14.2114C13.0902 14.7283 13.2656 15.1746 13.4429 15.6257C13.4769 15.7122 13.511 15.799 13.5441 15.8863C14.0005 17.0924 13.4779 18.9163 12.4585 19.3969C11.3177 19.9347 10.1704 19.9694 9.04376 19.257C8.55764 18.9495 8.23846 18.5165 7.91677 18.0801C7.82241 17.952 7.7278 17.8237 7.62871 17.6981C7.03232 16.9423 6.33447 16.8075 5.83007 17.3979C5.34038 17.9716 5.49822 18.6983 5.86448 19.24C7.38064 21.4833 9.50054 22.5717 12.2736 22.0838C13.4508 21.8764 14.3915 21.2674 15.1419 20.1653C15.5082 20.6697 15.7845 21.0377 16.1751 21.3021Z" fill="#6504B5"/>
</g>
<defs>
<clipPath id="clip0_468_12297">
<rect width="30" height="30" fill="white"/>
</clipPath>
</defs>
</svg>
