<svg width="20" height="21" viewBox="0 0 20 21" fill="none" xmlns="http://www.w3.org/2000/svg">
<g clip-path="url(#clip0_624_14537)">
<path d="M13.536 6.98235C13.1471 6.59344 12.5107 6.59344 12.1218 6.98235L10.0004 9.10367L7.87912 6.98235C7.49021 6.59344 6.85382 6.59344 6.46491 6.98235C6.076 7.37126 6.076 8.00765 6.46491 8.39656L8.58623 10.5179L6.46491 12.6392C6.076 13.0281 6.076 13.6645 6.46491 14.0534C6.85382 14.4423 7.49021 14.4423 7.87912 14.0534L10.0004 11.9321L12.1218 14.0534C12.5107 14.4423 13.1471 14.4423 13.536 14.0534C13.9249 13.6645 13.9249 13.0281 13.536 12.6392L11.4147 10.5179L13.536 8.39656C13.9249 8.00765 13.9249 7.37126 13.536 6.98235ZM17.0715 3.44682C13.1683 -0.456413 6.8326 -0.456413 2.92938 3.44682C-0.973854 7.35005 -0.973854 13.6857 2.92938 17.589C6.8326 21.4922 13.1683 21.4922 17.0715 17.589C20.9747 13.6857 20.9747 7.35005 17.0715 3.44682ZM4.34359 16.1747C1.22525 13.0564 1.22525 7.97937 4.34359 4.86103C7.46193 1.74269 12.539 1.74269 15.6573 4.86103C18.7756 7.97937 18.7756 13.0564 15.6573 16.1747C12.539 19.2931 7.46193 19.2931 4.34359 16.1747Z" fill="#410078"/>
</g>
<defs>
<clipPath id="clip0_624_14537">
<rect width="20" height="20" fill="white" transform="translate(0 0.517883)"/>
</clipPath>
</defs>
</svg>
