<svg width="40" height="40" viewBox="0 0 40 40" fill="none" xmlns="http://www.w3.org/2000/svg">
<path d="M30.1001 10.3511C30.1001 12.0733 28.7089 13.4689 26.9934 13.4689C25.2778 13.4689 23.8867 12.0733 23.8867 10.3511C23.8867 8.62889 25.2778 7.23334 26.9934 7.23334C28.7089 7.23334 30.1001 8.62889 30.1001 10.3511Z" fill="white"/>
<path d="M34.5179 24.0089C33.7691 24.0089 33.0779 24.5222 32.6668 25.1622C31.4202 27.0978 30.0446 28.6333 27.2179 28.6333C23.7179 28.6333 22.3935 26.62 22.3935 23.3578C22.3935 21.9289 23.3935 20.8844 23.5157 19.4044C22.7068 20.2111 21.5668 20.7378 20.0868 20.7378C18.4979 20.7378 17.2979 20.1355 16.4846 19.2267C16.5357 20.7355 17.6179 21.9267 17.6179 23.3333C17.6179 26.5955 16.1779 28.6333 12.7802 28.6333C10.0891 28.6333 8.58461 27.1444 7.34905 25.1622C6.83128 24.3333 6.00683 24.0089 5.45128 24.0089C4.45572 24.0089 3.72461 24.7755 3.72461 25.7111C3.72461 27.6578 7.17128 32.7644 12.9224 32.7644C15.4335 32.7644 18.1913 32.0867 20.0091 29.2867C21.9891 32.3733 25.2379 32.7667 27.1313 32.7667C32.6246 32.7667 36.2757 27.8511 36.2757 25.7155C36.2757 24.82 35.6468 24.0089 34.5179 24.0089Z" fill="white"/>
<path d="M24.3265 17.1289C24.2465 16.9333 24.1487 16.7445 24.0287 16.5689C23.6598 16.0333 23.0731 15.7067 22.4331 15.6067C22.2865 15.5822 22.1331 15.5689 21.9776 15.5689C21.5131 15.5645 21.0354 15.6622 20.6487 15.8956C20.5198 15.9733 20.3998 16.0645 20.2909 16.1689C20.182 16.2711 20.0842 16.3867 19.9998 16.5089C19.9154 16.3867 19.8176 16.2711 19.7087 16.1689C19.5998 16.0667 19.4798 15.9733 19.3509 15.8956C19.222 15.8178 19.082 15.7556 18.9376 15.7067C18.6465 15.6089 18.3309 15.5667 18.022 15.5689C17.8665 15.5711 17.7154 15.5845 17.5665 15.6067C16.9265 15.7089 16.3398 16.0333 15.9709 16.5689C15.8509 16.7422 15.7531 16.9311 15.6731 17.1289C15.2642 18.1356 15.4376 19.2711 16.0509 20.2422C16.4331 20.8467 16.9598 21.3467 17.5509 21.7422C17.6065 21.7711 17.6576 21.8156 17.7087 21.8489C17.762 21.8845 17.8176 21.9178 17.8731 21.9489C17.9331 21.9845 17.9998 22.0111 18.0598 22.0445C18.1687 22.1045 18.2776 22.16 18.3909 22.2133C18.4954 22.2622 18.5998 22.3133 18.7065 22.3578C18.7642 22.3822 18.8198 22.4133 18.8776 22.4356C18.9531 22.4645 19.0309 22.4867 19.1065 22.5133C19.1642 22.5356 19.222 22.56 19.2798 22.5822C19.442 22.6378 19.6087 22.6889 19.7798 22.7178C19.8554 22.7289 19.9265 22.7333 19.9998 22.7333C20.0709 22.7333 20.1442 22.7311 20.2198 22.7178C20.3909 22.6911 20.5554 22.64 20.7198 22.5822C20.7798 22.5622 20.8354 22.5356 20.8931 22.5133C20.9687 22.4867 21.0465 22.4645 21.122 22.4356C21.1798 22.4133 21.2354 22.3822 21.2931 22.3578C21.3998 22.3133 21.5042 22.2645 21.6087 22.2133C21.7198 22.16 21.8309 22.1045 21.9376 22.0445C21.9998 22.0111 22.0642 21.9845 22.1242 21.9489C22.1798 21.9156 22.2331 21.8822 22.2887 21.8489C22.342 21.8156 22.3931 21.7711 22.4465 21.7422C23.0376 21.3467 23.5642 20.8467 23.9465 20.2422C24.562 19.2711 24.7331 18.1356 24.3265 17.1289Z" fill="#C22A22"/>
</svg>
