<svg width="22" height="22" viewBox="0 0 22 22" fill="none" xmlns="http://www.w3.org/2000/svg">
<path fill-rule="evenodd" clip-rule="evenodd" d="M11.648 3.93514C11.29 3.57716 10.7096 3.57716 10.3517 3.93514C9.99368 4.29312 9.99368 4.87352 10.3517 5.2315L15.2035 10.0833H4.58317C4.07691 10.0833 3.6665 10.4937 3.6665 11C3.6665 11.5063 4.07691 11.9167 4.58317 11.9167H15.2035L10.3517 16.7685C9.99368 17.1265 9.99368 17.7069 10.3517 18.0648C10.7096 18.4228 11.29 18.4228 11.648 18.0648L18.0647 11.6482C18.2415 11.4713 18.331 11.2402 18.3331 11.0085C18.3332 11.0056 18.3332 11.0028 18.3332 11C18.3332 10.9972 18.3332 10.9943 18.3331 10.9915C18.332 10.8703 18.3074 10.7547 18.2636 10.6491C18.2189 10.541 18.1526 10.4397 18.0647 10.3518L11.648 3.93514Z" fill="#6504B5"/>
</svg>
